<svg width="34" height="36" viewBox="0 0 34 36" fill="none" xmlns="http://www.w3.org/2000/svg">
<g filter="url(#filter0_d)">
<path d="M17.0013 2.78674C10.0988 2.78674 4.5025 8.27326 4.5025 15.0404C4.5025 21.1556 9.0725 26.2242 15.0488 27.147V18.5833H11.8738V15.0404H15.0488V12.3407C15.0488 9.26714 16.915 7.57228 19.7688 7.57228C21.1363 7.57228 22.5688 7.81125 22.5688 7.81125V10.8247H20.9888C19.4388 10.8247 18.9538 11.7708 18.9538 12.7402V15.038H22.4175L21.8638 18.5809H18.9538V27.1446C24.93 26.2267 29.5 21.1568 29.5 15.0404C29.5 8.27326 23.9038 2.78674 17.0013 2.78674Z" fill="#FAFAFA"/>
</g>
<defs>
<filter id="filter0_d" x="-2" y="0.333374" width="38" height="37.4118" filterUnits="userSpaceOnUse" color-interpolation-filters="sRGB">
<feFlood flood-opacity="0" result="BackgroundImageFix"/>
<feColorMatrix in="SourceAlpha" type="matrix" values="0 0 0 0 0 0 0 0 0 0 0 0 0 0 0 0 0 0 127 0"/>
<feOffset dy="4"/>
<feGaussianBlur stdDeviation="2"/>
<feColorMatrix type="matrix" values="0 0 0 0 0 0 0 0 0 0 0 0 0 0 0 0 0 0 0.25 0"/>
<feBlend mode="normal" in2="BackgroundImageFix" result="effect1_dropShadow"/>
<feBlend mode="normal" in="SourceGraphic" in2="effect1_dropShadow" result="shape"/>
</filter>
</defs>
</svg>
