<svg width="122" height="178" viewBox="0 0 122 178" fill="none" xmlns="http://www.w3.org/2000/svg">
<path fill-rule="evenodd" clip-rule="evenodd" d="M99.88 0.384446C121.111 -2.16928 141.483 8.39243 159.177 20.419C177.356 32.7754 194.53 48.2262 201.141 69.212C207.723 90.1084 201.834 112.314 194.642 133.008C187.587 153.309 177.201 172.255 160.596 185.872C143.255 200.092 122.165 213.096 99.88 210.717C78.235 208.407 63.2412 189.3 47.8903 173.842C34.9096 160.771 25.9252 145.512 18.413 128.681C9.93978 109.697 -4.94193 89.9173 1.62797 70.1911C8.19512 50.4732 33.1738 45.5653 50.1003 33.5393C66.7611 21.7021 79.5991 2.82395 99.88 0.384446Z" fill="url(#paint0_linear)"/>
<defs>
<linearGradient id="paint0_linear" x1="102" y1="-4.11493e-07" x2="38.8006" y2="109.237" gradientUnits="userSpaceOnUse">
<stop stop-color="#6874D9"/>
<stop offset="1" stop-color="#8E94C7"/>
</linearGradient>
</defs>
</svg>
