<svg width="176" height="178" viewBox="0 0 176 178" fill="none" xmlns="http://www.w3.org/2000/svg">
<path fill-rule="evenodd" clip-rule="evenodd" d="M55.2863 0.677963C83.3788 -0.868016 114.329 -1.26362 136.073 16.5896C157.455 34.1456 159.872 64.8093 166.195 91.7418C171.958 116.287 182.161 142.762 171.006 165.373C160.176 187.322 131.595 191.279 110.753 204.115C92.0456 215.636 77.1396 234.365 55.2863 236.641C32.3174 239.033 10.1228 229.163 -9.26194 216.613C-29.5448 203.482 -44.9796 185.294 -56.6772 164.153C-70.8489 138.539 -90.9372 111.006 -83.3344 82.7383C-75.6902 54.3169 -44.6161 40.1328 -19.2884 25.1394C3.78855 11.4784 28.509 2.15157 55.2863 0.677963Z" fill="url(#paint0_linear)"/>
<defs>
<linearGradient id="paint0_linear" x1="88.4502" y1="46.2617" x2="22.5713" y2="173.953" gradientUnits="userSpaceOnUse">
<stop stop-color="#6BB8DA"/>
<stop offset="1" stop-color="#B9DBEA"/>
</linearGradient>
</defs>
</svg>
