<svg width="30" height="30" viewBox="0 0 30 30" fill="none" xmlns="http://www.w3.org/2000/svg">
<path d="M15 11.2106C12.8496 11.2106 11.0947 12.9311 11.0947 15.0393C11.0947 17.1475 12.8496 18.868 15 18.868C17.1504 18.868 18.9053 17.1475 18.9053 15.0393C18.9053 12.9311 17.1504 11.2106 15 11.2106ZM26.7129 15.0393C26.7129 13.4538 26.7276 11.8827 26.6367 10.3001C26.5459 8.46188 26.1182 6.83044 24.7471 5.48623C23.3731 4.13915 21.7119 3.72268 19.8369 3.63364C18.2197 3.5446 16.6172 3.55896 15.0029 3.55896C13.3858 3.55896 11.7832 3.5446 10.169 3.63364C8.29396 3.72268 6.62989 4.14202 5.2588 5.48623C3.88477 6.83332 3.45997 8.46188 3.36915 10.3001C3.27833 11.8856 3.29298 13.4567 3.29298 15.0393C3.29298 16.6219 3.27833 18.1959 3.36915 19.7785C3.45997 21.6167 3.8877 23.2482 5.2588 24.5924C6.63282 25.9395 8.29396 26.3559 10.169 26.445C11.7861 26.534 13.3887 26.5197 15.0029 26.5197C16.6201 26.5197 18.2227 26.534 19.8369 26.445C21.7119 26.3559 23.376 25.9366 24.7471 24.5924C26.1211 23.2453 26.5459 21.6167 26.6367 19.7785C26.7305 18.1959 26.7129 16.6248 26.7129 15.0393ZM15 20.9303C11.6748 20.9303 8.99122 18.2993 8.99122 15.0393C8.99122 11.7793 11.6748 9.14834 15 9.14834C18.3252 9.14834 21.0088 11.7793 21.0088 15.0393C21.0088 18.2993 18.3252 20.9303 15 20.9303ZM21.2549 10.2829C20.4785 10.2829 19.8516 9.66822 19.8516 8.90707C19.8516 8.14593 20.4785 7.53127 21.2549 7.53127C22.0313 7.53127 22.6582 8.14593 22.6582 8.90707C22.6584 9.08781 22.6223 9.26682 22.5519 9.43384C22.4814 9.60086 22.3781 9.75262 22.2477 9.88042C22.1173 10.0082 21.9626 10.1096 21.7922 10.1786C21.6218 10.2477 21.4392 10.2831 21.2549 10.2829Z" fill="#FAFAFA"/>
</svg>
