<svg width="191" height="70" viewBox="0 0 191 70" fill="none" xmlns="http://www.w3.org/2000/svg">
<path fill-rule="evenodd" clip-rule="evenodd" d="M68.7779 35.6348V34.4522C68.7679 34.2575 68.752 34.0751 68.7295 33.9104L68.718 33.8206L68.6256 33.7647C67.1719 32.8867 65.3012 32.3746 63.425 32.3338C63.3831 32.082 63.1604 30.3082 63.1253 30.0576C64.908 29.544 66.6034 28.5596 67.7944 27.3014L67.8614 27.2337L67.8472 27.1495C67.7612 26.4629 67.4976 25.5296 67.2711 24.9545L67.234 24.8594L67.1377 24.8396C65.5163 24.3725 63.5574 24.3824 61.7775 24.8396C61.6541 24.6122 61.0088 22.9875 60.9122 22.7422C62.4999 21.7538 63.8841 20.3677 64.7262 18.8705L64.7818 18.7882L64.7262 18.6778C64.4964 18.1064 64.0247 17.2751 63.613 16.7381L63.5574 16.6615H63.4796C61.7841 16.6301 59.9141 17.1502 58.2595 18.0571C58.0962 17.8513 57.0353 16.4263 56.8866 16.219C58.1631 14.8724 59.1647 13.1521 59.5878 11.4564L59.6172 11.3693L59.547 11.2938C59.1647 10.78 58.4894 10.0642 57.9884 9.68569L57.9153 9.60622L57.8411 9.6474C56.1781 10.0642 54.4899 11.0705 53.1616 12.386C52.9503 12.2205 51.5403 11.0967 51.3513 10.9456C52.2304 9.34914 52.7517 7.47575 52.7517 5.76117V5.52687L52.6767 5.47938C52.1719 5.07462 51.3513 4.59422 50.7652 4.34058L50.676 4.2994L50.5905 4.34346C49.1102 5.19952 47.7487 6.60226 46.8028 8.21995C46.5653 8.11879 44.8586 7.39052 44.6358 7.29801C44.8586 6.39405 44.992 5.4522 45.0077 4.51681C45.0077 3.5692 44.8866 2.65646 44.6358 1.8192L44.6074 1.71613L44.5356 1.68703C43.9543 1.42803 43.0486 1.17575 42.38 1.09971L42.2984 1.0746L42.2428 1.13554C41.0147 2.34997 40.0502 4.0684 39.5255 5.89485C39.2747 5.86918 37.52 5.63819 37.2502 5.57669C37.2502 3.71346 36.7369 1.79217 35.8512 0.299793L35.7995 0.221421L35.7168 0.195754C35.4151 0.158284 35.037 0.138931 34.6542 0.137695H34.58C34.1969 0.138793 33.8136 0.158146 33.502 0.195754L33.4103 0.221421L33.3722 0.299793C32.4909 1.79217 31.9865 3.71346 31.9476 5.59413C31.7073 5.63819 29.9103 5.86918 29.6601 5.89485C29.1472 4.0684 28.175 2.33693 26.9555 1.1273L26.8805 1.06101L26.7765 1.0746C26.1302 1.17575 25.2098 1.42803 24.658 1.66342L24.5697 1.68703L24.5578 1.79217C24.3084 2.63752 24.194 3.55424 24.194 4.51681C24.1803 5.4426 24.3193 6.37703 24.5431 7.2792C24.3084 7.3746 22.5988 8.13183 22.3681 8.21995C21.4049 6.60226 20.0269 5.1884 18.5623 4.34346L18.463 4.2994L18.3999 4.34058C17.8044 4.58654 16.9704 5.07462 16.478 5.46771L16.3948 5.52687V5.77818C16.3948 7.45064 16.9002 9.33117 17.8044 10.9456C17.6096 11.0967 16.2947 12.1299 16.1032 12.2849C14.7902 10.9823 13.1039 9.96844 11.4313 9.53169L11.3563 9.51673L11.2765 9.56752C10.7783 9.96844 10.0968 10.6507 9.68504 11.1766L9.6495 11.2511L9.66795 11.3242C10.0884 13.0189 11.0604 14.7291 12.345 16.0941C12.1949 16.2966 11.0903 17.8198 10.9389 18.0043C9.31943 17.0896 7.44316 16.5594 5.74108 16.5847H5.63999L5.57968 16.6615C5.2107 17.1758 4.74103 17.9966 4.47974 18.6018L4.43801 18.6918L4.47974 18.7882C5.31085 20.2965 6.70843 21.6937 8.30025 22.6754C8.20104 22.9184 7.54331 24.5369 7.44316 24.7607C5.63999 24.3095 3.67824 24.2959 2.05599 24.7833L1.96808 24.8088L1.94008 24.8922C1.68889 25.4647 1.4338 26.3873 1.35599 27.0773L1.33889 27.1732L1.38924 27.2337C2.59405 28.4711 4.28939 29.4628 6.06645 29.9825C6.03791 30.2247 5.81526 32.0195 5.77622 32.2715C3.90089 32.2998 2.01506 32.8105 0.548161 33.692L0.474526 33.7332L0.46793 33.8362C0.427007 34.1714 0.415161 34.5649 0.415161 34.9664C0.415161 35.3772 0.427007 35.7829 0.46793 36.0931L0.474526 36.1962L0.548161 36.2455C2.01506 37.1343 3.90089 37.628 5.77622 37.6536C5.80233 37.9089 6.06645 39.7549 6.08637 40.0112C4.28939 40.554 2.60966 41.5367 1.41535 42.7784L1.35599 42.8569L1.37443 42.9619C1.47472 43.6305 1.71824 44.5808 1.94008 45.1455L1.98855 45.2211L2.06824 45.2467C3.71095 45.7158 5.66233 45.7025 7.45783 45.2467C7.57185 45.4756 8.2452 47.0993 8.34737 47.3471C6.76779 48.3127 5.38489 49.7076 4.53816 51.2189L4.5002 51.2984L4.53816 51.3884C4.79137 51.9886 5.26145 52.836 5.65466 53.3668L5.71268 53.4254H5.80233C7.48395 53.4689 9.37879 52.9335 11.0001 52.0066C11.1559 52.2248 12.2562 53.6786 12.4024 53.8811C11.1264 55.2173 10.1448 56.9377 9.70887 58.6228L9.68504 58.7109L9.7397 58.8014C10.1448 59.3224 10.7897 59.9863 11.2907 60.3989L11.3805 60.4585L11.4651 60.4317C13.1039 60.0037 14.8002 59.0174 16.1323 57.7082C16.3317 57.8606 17.7858 58.987 17.9787 59.14C17.1053 60.7838 16.5958 62.6629 16.5958 64.3698V64.5485L16.6589 64.6128C17.1775 65.0094 17.9787 65.4782 18.5874 65.7556L18.681 65.7808L18.7589 65.7363C20.2283 64.9033 21.6202 63.4755 22.5842 61.8317C22.8092 61.9348 24.3678 62.5788 24.5977 62.6799C24.3678 63.5801 24.2397 64.5035 24.2397 65.4253C24.2397 66.3662 24.3678 67.3156 24.6171 68.162L24.6466 68.2386L24.7174 68.274C25.3072 68.5223 26.1858 68.7853 26.8544 68.8855L26.9555 68.901L27.0205 68.8375C28.2411 67.6073 29.2103 65.8869 29.7027 64.0909C29.953 64.1078 31.7552 64.3698 32.0103 64.3955C32.0511 66.2907 32.564 68.2125 33.4203 69.7019L33.4778 69.7804L33.5575 69.7934C34.2048 69.8853 35.1564 69.8853 35.7501 69.7934L35.8512 69.7804L35.8987 69.7019C36.7835 68.2125 37.2934 66.2907 37.3235 64.3955C37.5647 64.3442 39.2747 64.1078 39.4984 64.0909C40.0027 65.898 40.9629 67.6281 42.2171 68.8439L42.2727 68.915L42.3729 68.901C43.0221 68.7853 43.9543 68.5499 44.5061 68.3156L44.595 68.2662L44.6074 68.1819C44.8324 67.3326 44.992 66.3928 44.992 65.4529C44.9664 64.5223 44.8324 63.5801 44.6074 62.6799C44.8324 62.5788 46.4836 61.8583 46.7134 61.7551C47.667 63.3714 49.0623 64.7813 50.5183 65.6457L50.6166 65.6786L50.676 65.6534C51.2696 65.4055 52.1017 64.9145 52.6016 64.5035L52.7029 64.4454V64.211C52.7029 62.525 52.1748 60.6587 51.3066 59.0372C51.508 58.8839 52.8648 57.8031 53.0613 57.6515C54.3905 58.9612 56.1001 59.9591 57.7177 60.3989L57.8411 60.4235L57.9005 60.3713C58.4006 59.9591 59.0906 59.2716 59.4653 58.7525L59.5133 58.691L59.4876 58.6029C59.0906 56.9073 58.1109 55.1879 56.8202 53.8321C56.9683 53.6331 58.063 52.1587 58.212 51.9591C59.8509 52.8897 61.7281 53.3988 63.4098 53.3789H63.5138L63.5574 53.3013C63.9692 52.7866 64.4293 51.93 64.6743 51.3379L64.7 51.2509L64.6593 51.168C63.8766 49.68 62.4851 48.2862 60.9122 47.2724C60.9787 47.0378 61.6432 45.4254 61.7281 45.1985C63.5242 45.6514 65.4647 45.6694 67.1115 45.1861L67.197 45.172L67.2269 45.0784C67.4901 44.4835 67.7275 43.5671 67.8206 42.8844V42.8049L67.7721 42.7273C66.5849 41.4761 64.8819 40.4974 63.1253 39.981C63.1604 39.737 63.3647 38.0015 63.4098 37.7586C65.2937 37.7056 67.1719 37.2034 68.6256 36.3211L68.718 36.2728L68.7295 36.1849C68.752 36.0193 68.7679 35.8323 68.7779 35.6348ZM52.5541 49.784L53.0613 50.6025L53.5263 51.4271L54.1521 50.6025L54.3155 50.397L52.5541 49.784ZM27.4323 57.3634C27.4062 57.2404 27.3577 57.1417 27.2097 57.0728L26.1302 56.6671L25.8861 57.3634L25.7997 57.6176L25.7926 57.6336L26.7765 58.0093C27.0462 58.1309 27.307 57.8863 27.4006 57.6176C27.4323 57.544 27.4599 57.452 27.4323 57.3634ZM35.8763 60.2884L35.5425 59.4494L35.2049 58.5414L34.912 59.4494L34.6232 60.3443L35.8763 60.2884ZM47.5706 56.7106C47.5706 56.4477 47.5047 56.2133 47.382 55.9864C47.0255 55.3089 46.1793 55.0904 45.5201 55.4765C45.0551 55.7307 44.8176 56.2133 44.8176 56.7106C44.8324 56.9377 44.8866 57.1919 45.0181 57.4065C45.0551 57.4739 45.0998 57.544 45.1663 57.6176C45.5804 58.1216 46.3102 58.2389 46.8712 57.9062C47.0255 57.8283 47.1485 57.7264 47.2477 57.6176C47.4538 57.3634 47.5706 57.0224 47.5706 56.7106ZM56.8088 48.1387L53.6644 46.3731L53.2618 47.1117L57.0353 49.2592L58.4894 46.6019L57.8411 46.2482L56.8088 48.1387ZM15.2679 45.9361L11.569 48.1387C11.7014 48.4026 11.8444 48.7125 12.0063 48.9674L15.713 46.7589C15.5319 46.4259 15.4299 46.2482 15.2679 45.9361ZM17.6415 49.4534L15.6379 51.2189L16.6589 48.1926C16.478 47.9334 16.3948 47.7528 16.2054 47.5145L12.6143 49.9991C12.7747 50.2447 12.9714 50.4717 13.1418 50.726L15.3012 49.2007L14.2882 52.2497C14.4635 52.4512 14.6406 52.7596 14.8885 52.9649L18.2109 50.0596C18.027 49.8587 17.8044 49.68 17.6415 49.4534ZM19.8379 52.7973L17.5579 55.5559L16.8474 54.9278L19.2053 52.2497C18.8315 51.8968 18.5466 51.5789 18.1848 51.2509L18.7099 50.7138C19.6075 51.5789 20.3977 52.2497 21.3884 53.0632L20.9339 53.6549C20.573 53.3668 20.2012 53.0893 19.8379 52.7973ZM22.5162 54.8644C23.0999 55.1879 23.6702 55.5258 24.3084 55.8338L24.6913 55.1879C23.8075 54.7225 22.9783 54.1903 22.2351 53.6645L19.7969 57.313C20.7216 57.9372 21.5665 58.4581 22.5162 59.0174L22.9094 58.373L20.9433 57.1919L21.6073 56.2404L22.9094 57.0389L23.2889 56.4182C22.8705 56.1838 22.4346 55.9131 21.9783 55.6285L22.5162 54.8644ZM28.2411 57.3634V57.6026C28.175 58.188 27.7857 58.7825 27.1541 58.8571L27.3003 60.9019C27.0073 60.8337 26.6763 60.7344 26.3639 60.5993L26.3301 58.6757L25.4824 58.306L24.7952 60.0037C24.517 59.9097 24.2397 59.8191 23.968 59.6833L24.839 57.6176L24.9429 57.3634L25.6515 55.6589L27.5815 56.4182C28.0108 56.5746 28.2082 56.9638 28.2411 57.3634ZM31.9448 57.4065L31.6318 60.0754L30.3743 57.1483C30.0794 57.0898 29.8957 57.0123 29.5988 56.9638L28.612 61.2801C28.9173 61.3634 29.2103 61.3967 29.5247 61.4525L30.0533 58.8014L31.3278 61.7551C31.6171 61.7996 31.9448 61.8922 32.2814 61.8835L32.7535 57.4254C32.5056 57.4114 32.2117 57.452 31.9448 57.4065ZM36.4401 59.4494L37.3723 61.7551C37.0674 61.768 36.7835 61.7996 36.5109 61.8317L36.2231 61.0864L34.3591 61.1393L34.1455 61.9189C33.8477 61.8922 33.5698 61.8835 33.274 61.8835L34.078 59.4494L34.6503 57.6026L34.6783 57.544L35.6285 57.5005L35.677 57.6176L36.4401 59.4494ZM40.555 56.7426C39.3018 57.0224 38.3372 57.2554 37.0941 57.452L37.2094 58.188C37.6692 58.1139 38.0894 58.0583 38.5747 57.9957L39.2016 61.5411L40.1243 61.3634L39.3759 57.8283C39.8507 57.7082 40.2877 57.5861 40.7598 57.4739L40.555 56.7426ZM41.5751 56.3723L43.0007 60.5219C43.278 60.4235 43.5758 60.3374 43.857 60.2124L42.4741 56.0817C42.0946 56.2133 41.9203 56.2662 41.5751 56.3723ZM48.0555 55.6183C48.2383 55.9455 48.3276 56.3238 48.3424 56.7106C48.3424 57.0123 48.2791 57.3218 48.1566 57.6026C47.9563 58.0093 47.6604 58.373 47.2477 58.616C46.2424 59.2151 44.9421 58.8571 44.3319 57.8031C44.3105 57.7426 44.2835 57.6762 44.2425 57.6026C44.1201 57.3218 44.0607 57.0123 44.0351 56.7106C44.0607 55.934 44.4321 55.2173 45.1145 54.8144C46.1355 54.2244 47.4538 54.5772 48.0555 55.6183ZM49.6374 51.4948L51.4182 53.4524L48.4288 52.5533C48.1799 52.746 48.0133 52.8134 47.7934 53.009L50.3949 56.5746C50.6166 56.3983 50.8465 56.1838 51.0545 56.0032L49.4759 53.8582L52.4949 54.7849C52.7029 54.6015 52.9986 54.3947 53.2024 54.1338L50.1911 50.8871C50.0306 51.0649 49.845 51.2984 49.6374 51.4948ZM52.0675 48.7848L56.3485 50.2184C56.2484 50.3477 56.1685 50.4717 56.0779 50.6025C56.0038 50.7007 55.9145 50.8 55.8551 50.9278L55.1057 50.6524L53.937 52.1407L54.364 52.823C54.1893 53.0254 53.9926 53.2448 53.7704 53.4689L52.0745 50.6025L51.4477 49.5459L52.0675 48.7848ZM36.0655 10.9456C36.5331 10.9683 36.9673 11.0216 37.405 11.0846L37.1747 10.1709L36.8856 9.22905L36.4516 10.1709L36.0655 10.9456ZM26.436 11.3522C26.4935 12.1299 27.1697 12.6969 27.9035 12.633C28.6276 12.5569 29.1686 11.9673 29.1686 11.2245C29.1947 11.1877 29.1686 11.145 29.1686 11.0967C29.1053 10.3151 28.4457 9.76654 27.6816 9.84011C26.9555 9.89487 26.409 10.4812 26.436 11.2245V11.3522ZM41.1197 10.9456L42.0833 11.2628C42.3468 11.3398 42.6954 10.9184 42.6954 10.5519C42.6954 10.377 42.6361 10.2222 42.4061 10.1709C42.0501 10.0305 41.8059 9.96844 41.4175 9.86824L41.219 10.5519L41.1197 10.9456ZM21.83 12.4021L21.9488 12.6083L22.3847 13.3768L23.2889 12.8925C23.3734 12.8494 23.4213 12.7415 23.4375 12.6083C23.4551 12.192 23.1602 11.6283 22.7314 11.8912C22.3976 12.0694 22.1943 12.192 21.83 12.4021ZM25.6515 11.4298V11.2245C25.6292 10.0943 26.4787 9.16413 27.5952 9.07313C28.7754 8.95591 29.8234 9.84011 29.9227 11.0497V11.2245C29.9227 12.3531 29.0869 13.3181 27.9514 13.4242C26.805 13.5273 25.7517 12.6471 25.6515 11.4298ZM35.3531 12.433C34.9935 12.4291 34.8274 12.4291 34.475 12.4291L35.5425 10.1709L36.5109 8.11879L37.4715 8.21995L37.9763 10.1709L38.6741 12.7923C38.3511 12.7308 38.0999 12.681 37.7945 12.663L37.5461 11.8413C36.9117 11.7411 36.3385 11.7097 35.7501 11.684L35.3531 12.433ZM40.5289 13.2398C40.1836 13.1375 39.9287 13.094 39.5492 12.9835L40.2488 10.5519L40.7598 8.81852C41.4972 9.00491 42.1981 9.24895 42.8996 9.48187C43.2966 9.60622 43.5089 10.0642 43.5497 10.5519C43.5758 11.2143 43.2529 11.9338 42.5971 12.0844L42.8521 14.0445C42.5444 13.9142 42.3169 13.8169 41.9759 13.6804L41.7532 11.9673L40.9307 11.7097L40.5289 13.2398ZM20.886 12.6083L20.6476 12.1715C21.2743 11.7658 21.9488 11.4137 22.5988 11.0593C23.364 10.6289 24.4439 11.6719 24.3678 12.6083C24.3535 12.7734 24.3084 12.923 24.2126 13.0751L25.7774 14.2357C25.4824 14.3767 25.2592 14.4968 24.9073 14.6531L23.5368 13.6315L22.7807 14.0445L23.5857 15.4017C23.2742 15.6041 23.0847 15.73 22.7204 15.9464L20.886 12.6083ZM31.799 8.99667L32.1775 12.5724L33.0983 12.4742L32.7378 8.92448L34.1306 8.83732L34.078 8.04028C32.5223 8.13183 31.8816 8.19579 30.342 8.43009L30.4446 9.1865L31.799 8.99667ZM45.2632 15.2666L46.1943 13.4382L48.7071 12.2476C48.4426 12.0539 48.1566 11.9188 47.8917 11.7411L46.1607 12.5449L45.8415 10.6289C45.4802 10.454 45.2632 10.377 44.8866 10.2222L45.3899 13.0092L44.4577 14.8153L45.2632 15.2666ZM34.5742 41.9395C38.3211 41.9395 41.3672 38.8385 41.3672 35.0188C41.3672 31.199 38.3211 28.0943 34.5742 28.0802C30.8288 28.0802 27.7857 31.199 27.7857 35.0188C27.7857 38.8385 30.8288 41.9395 34.5742 41.9395ZM34.5742 41.2643C31.2053 41.2643 28.4534 38.4461 28.4534 35.0188C28.4534 31.567 31.2053 28.7629 34.5742 28.7629C37.965 28.7629 40.6923 31.567 40.6923 35.0188C40.6923 38.4612 37.9512 41.2643 34.5742 41.2643ZM51.5963 41.8619C51.8779 42.0482 52.2046 42.2743 52.5015 42.1693C52.7029 42.1069 52.8761 41.8818 52.9873 41.4761C54.3155 36.8847 54.3155 32.9629 52.9873 28.4262C52.9056 28.1415 52.776 27.8474 52.5423 27.7412C52.3057 27.6546 52.0081 27.7539 51.5821 28.0485L42.8811 34.0807C42.5444 34.3114 42.3729 34.6263 42.3729 34.9517C42.3729 35.2751 42.5444 35.5899 42.8811 35.817L51.5963 41.8619ZM49.6778 22.664C49.6891 22.4806 49.5784 22.2488 49.3263 21.9959C46.0942 18.5093 42.7742 16.5594 38.2209 15.4555C37.965 15.3877 37.6692 15.3262 37.4715 15.5039C37.2679 15.6704 37.2094 15.992 37.2502 16.4732L38.0006 27.2138C38.0244 27.6208 38.2044 27.9436 38.4708 28.1071C38.7628 28.2759 39.1124 28.2446 39.4752 28.0665L48.962 23.3979C49.266 23.2476 49.6122 23.0836 49.6778 22.7529C49.6778 22.7322 49.6891 22.7057 49.6778 22.664ZM19.5121 22.8353C19.5519 23.1586 19.9128 23.3235 20.2283 23.4745L29.7027 28.1676C30.0794 28.3511 30.4298 28.3511 30.7157 28.1993C30.9827 28.0214 31.1555 27.7122 31.1792 27.3014L31.9448 16.5847C31.9865 16.0665 31.9149 15.7629 31.7321 15.6041C31.532 15.4283 31.2352 15.4777 30.9504 15.5315C26.409 16.6452 23.0999 18.6018 19.8379 22.0701C19.5743 22.3737 19.4518 22.6291 19.5121 22.8353ZM17.6096 28.1198C17.3 27.9155 16.9704 27.6826 16.7007 27.8046C16.4808 27.8721 16.3204 28.1071 16.2054 28.4882C14.8885 33.0962 14.8885 37.0028 16.2054 41.5508C16.2947 41.8468 16.3948 42.1419 16.6589 42.2166C16.875 42.3083 17.1942 42.2166 17.6096 41.9244L26.3045 35.885C26.6269 35.6638 26.8235 35.3488 26.8235 35.033C26.8235 34.6897 26.6269 34.388 26.3045 34.1569L17.6096 28.1198ZM19.6493 47.3405C19.6493 47.524 19.7718 47.7528 20.0008 47.9959C23.2637 51.4948 26.5676 53.4423 31.1052 54.528C31.3953 54.6179 31.6802 54.6619 31.8816 54.5012C32.0868 54.3454 32.1452 54.0238 32.1105 53.5179C32.1105 53.5018 31.3389 42.7784 31.3389 42.7784C31.3066 42.3717 31.1555 42.0615 30.8762 41.8979C30.5932 41.7287 30.2408 41.7287 29.8624 41.9045L20.3977 46.6019C20.0677 46.7589 19.7096 46.9357 19.6602 47.2515C19.6602 47.2724 19.6493 47.313 19.6493 47.3405ZM37.446 54.3454C37.6064 54.4742 37.8696 54.5119 38.2741 54.4087C42.8003 53.3013 46.1199 51.3456 49.3552 47.8843C49.5481 47.6564 49.7595 47.4219 49.6968 47.1618C49.6374 46.9121 49.4294 46.686 48.9877 46.4743L39.4984 41.7788C39.1385 41.6057 38.7889 41.6057 38.4992 41.7598C38.2209 41.9395 38.0505 42.2441 38.0244 42.6687L37.2574 53.3789C37.2502 53.73 37.2094 54.1298 37.446 54.3454ZM17.4196 14.705L20.2283 17.8949C20.6205 18.3248 21.0526 18.2721 21.6202 17.8198C25.169 14.981 29.7223 13.3022 34.5742 13.3022C39.4314 13.3022 43.9876 14.9751 47.5706 17.8198C48.1311 18.2416 48.5508 18.3248 48.962 17.8949L51.7725 14.705C52.0906 14.3519 52.0906 13.8663 51.481 13.3457C46.77 9.60622 40.9554 7.29801 34.5629 7.29801C28.2082 7.29801 22.3106 9.60622 17.6838 13.3628C17.0783 13.8663 17.1053 14.3519 17.4196 14.705ZM59.3651 44.0362L55.3171 42.6271C55.1057 42.5467 54.553 42.5467 54.2637 43.2729C50.9951 51.2664 43.3855 56.7363 34.5742 56.7363C25.7517 56.7363 18.0018 51.1404 14.8733 43.1482C14.6406 42.5467 14.0722 42.5467 13.857 42.6271L9.83137 44.0362C9.39441 44.1969 9.13231 44.5922 9.36129 45.1625C13.3152 55.4507 23.1478 62.7138 34.5742 62.7138C45.9973 62.7138 55.8747 55.4008 59.8419 45.119C60.0475 44.5808 59.7991 44.1969 59.3651 44.0362ZM9.17122 41.8327L13.2089 40.6374C13.5873 40.5238 13.8988 40.1191 13.8689 39.6159C12.4191 31.948 14.2608 25.7319 18.6691 20.7487C19.1151 20.4253 19.1625 19.7595 18.7366 19.3049L15.8013 16.2966C15.5163 15.9639 14.9978 15.9639 14.5527 16.4263C8.92716 22.4636 6.08637 31.7287 8.17022 41.2009C8.28518 41.6548 8.63801 41.9888 9.17122 41.8327ZM54.6864 16.3851C54.2904 15.8898 53.6332 15.9639 53.4436 16.3087L50.5183 19.3049C50.09 19.7595 50.1317 20.4253 50.5758 20.7487C54.9909 25.7319 56.8358 31.9348 55.3879 39.6159C55.3556 40.1191 55.6661 40.5238 56.0518 40.6374L60.0959 41.8327C60.6349 41.9888 60.9787 41.6548 61.0942 41.1849C63.1751 31.7287 60.3259 22.4323 54.6864 16.3851ZM34.6503 39.1989C32.442 39.1989 30.6051 37.3264 30.6051 35.0449C30.6051 33.2371 31.7552 31.6511 33.4611 31.1234C33.4778 30.9362 33.5252 29.9952 33.5252 29.9952H35.5797C35.5797 29.9952 35.6285 30.8614 35.6509 31.0478C37.4307 31.5007 38.7239 33.1496 38.7239 35.0449C38.7239 37.3264 36.8856 39.1989 34.6503 39.1989Z" fill="#E7B012"/>
<path d="M95.74 39.26V53H94.84V41.14L89.56 53H88.84L83.54 41.14V53H82.64V39.26H83.6L89.2 51.82L94.8 39.26H95.74ZM103.826 53.16C102.813 53.16 101.9 52.9333 101.086 52.48C100.273 52.0267 99.6329 51.38 99.1663 50.54C98.7129 49.6867 98.4863 48.6933 98.4863 47.56C98.4863 46.44 98.7196 45.46 99.1863 44.62C99.6529 43.7667 100.293 43.12 101.106 42.68C101.933 42.2267 102.853 42 103.866 42C104.88 42 105.793 42.2267 106.606 42.68C107.42 43.12 108.053 43.76 108.506 44.6C108.973 45.44 109.206 46.4267 109.206 47.56C109.206 48.6933 108.973 49.6867 108.506 50.54C108.04 51.38 107.393 52.0267 106.566 52.48C105.753 52.9333 104.84 53.16 103.826 53.16ZM103.826 52.36C104.613 52.36 105.346 52.1867 106.026 51.84C106.72 51.48 107.273 50.94 107.686 50.22C108.1 49.5 108.306 48.6133 108.306 47.56C108.306 46.52 108.1 45.64 107.686 44.92C107.273 44.2 106.726 43.6667 106.046 43.32C105.366 42.96 104.633 42.78 103.846 42.78C103.06 42.78 102.326 42.96 101.646 43.32C100.98 43.6667 100.44 44.2 100.026 44.92C99.6129 45.64 99.4063 46.52 99.4063 47.56C99.4063 48.6133 99.6063 49.5 100.006 50.22C100.42 50.94 100.96 51.48 101.626 51.84C102.306 52.1867 103.04 52.36 103.826 52.36ZM116.837 41.92C118.13 41.92 119.184 42.32 119.997 43.12C120.81 43.9067 121.217 45.08 121.217 46.64V53H120.337V46.7C120.337 45.4067 120.01 44.42 119.357 43.74C118.704 43.0467 117.817 42.7 116.697 42.7C115.524 42.7 114.584 43.0733 113.877 43.82C113.184 44.5667 112.837 45.6733 112.837 47.14V53H111.937V42.14H112.837V44.44C113.144 43.6267 113.65 43.0067 114.357 42.58C115.077 42.14 115.904 41.92 116.837 41.92ZM129.078 42C130.224 42 131.198 42.28 131.998 42.84C132.798 43.3867 133.358 44.0933 133.678 44.96V42.14H134.578V53.34C134.578 54.34 134.358 55.2133 133.918 55.96C133.478 56.72 132.884 57.3 132.138 57.7C131.391 58.1133 130.558 58.32 129.638 58.32C128.278 58.32 127.151 57.9933 126.258 57.34C125.364 56.6867 124.778 55.8067 124.498 54.7H125.398C125.664 55.5667 126.164 56.2533 126.898 56.76C127.631 57.28 128.544 57.54 129.638 57.54C130.398 57.54 131.084 57.3667 131.698 57.02C132.311 56.6867 132.791 56.2 133.138 55.56C133.498 54.9333 133.678 54.1933 133.678 53.34V50.16C133.358 51.0267 132.791 51.7467 131.978 52.32C131.178 52.88 130.211 53.16 129.078 53.16C128.064 53.16 127.158 52.9333 126.358 52.48C125.571 52.0133 124.951 51.36 124.498 50.52C124.058 49.6667 123.838 48.68 123.838 47.56C123.838 46.44 124.058 45.46 124.498 44.62C124.951 43.78 125.571 43.1333 126.358 42.68C127.158 42.2267 128.064 42 129.078 42ZM133.678 47.56C133.678 46.6133 133.478 45.78 133.078 45.06C132.691 44.3267 132.158 43.7667 131.478 43.38C130.798 42.98 130.038 42.78 129.198 42.78C128.318 42.78 127.544 42.9733 126.878 43.36C126.211 43.7333 125.691 44.28 125.318 45C124.944 45.72 124.758 46.5733 124.758 47.56C124.758 48.5467 124.944 49.4 125.318 50.12C125.691 50.84 126.211 51.3933 126.878 51.78C127.558 52.1667 128.331 52.36 129.198 52.36C130.038 52.36 130.798 52.1667 131.478 51.78C132.171 51.38 132.711 50.82 133.098 50.1C133.484 49.3667 133.678 48.52 133.678 47.56ZM142.635 53.16C141.622 53.16 140.708 52.9333 139.895 52.48C139.082 52.0267 138.442 51.38 137.975 50.54C137.522 49.6867 137.295 48.6933 137.295 47.56C137.295 46.44 137.528 45.46 137.995 44.62C138.462 43.7667 139.102 43.12 139.915 42.68C140.742 42.2267 141.662 42 142.675 42C143.688 42 144.602 42.2267 145.415 42.68C146.228 43.12 146.862 43.76 147.315 44.6C147.782 45.44 148.015 46.4267 148.015 47.56C148.015 48.6933 147.782 49.6867 147.315 50.54C146.848 51.38 146.202 52.0267 145.375 52.48C144.562 52.9333 143.648 53.16 142.635 53.16ZM142.635 52.36C143.422 52.36 144.155 52.1867 144.835 51.84C145.528 51.48 146.082 50.94 146.495 50.22C146.908 49.5 147.115 48.6133 147.115 47.56C147.115 46.52 146.908 45.64 146.495 44.92C146.082 44.2 145.535 43.6667 144.855 43.32C144.175 42.96 143.442 42.78 142.655 42.78C141.868 42.78 141.135 42.96 140.455 43.32C139.788 43.6667 139.248 44.2 138.835 44.92C138.422 45.64 138.215 46.52 138.215 47.56C138.215 48.6133 138.415 49.5 138.815 50.22C139.228 50.94 139.768 51.48 140.435 51.84C141.115 52.1867 141.848 52.36 142.635 52.36ZM151.645 38.2V53H150.745V38.2H151.645ZM155.405 39.72C155.191 39.72 155.011 39.6533 154.865 39.52C154.718 39.3733 154.645 39.18 154.645 38.94C154.645 38.7133 154.718 38.5267 154.865 38.38C155.011 38.2333 155.191 38.16 155.405 38.16C155.618 38.16 155.798 38.2333 155.945 38.38C156.091 38.5267 156.165 38.7133 156.165 38.94C156.165 39.18 156.091 39.3733 155.945 39.52C155.798 39.6533 155.618 39.72 155.405 39.72ZM155.845 42.14V53H154.945V42.14H155.845ZM158.584 47.56C158.584 46.44 158.804 45.46 159.244 44.62C159.697 43.78 160.317 43.1333 161.104 42.68C161.904 42.2267 162.811 42 163.824 42C164.971 42 165.944 42.28 166.744 42.84C167.544 43.4 168.104 44.1133 168.424 44.98V42.14H169.324V53H168.424V50.14C168.104 51.02 167.537 51.7467 166.724 52.32C165.924 52.88 164.957 53.16 163.824 53.16C162.811 53.16 161.904 52.9333 161.104 52.48C160.317 52.0133 159.697 51.36 159.244 50.52C158.804 49.6667 158.584 48.68 158.584 47.56ZM168.424 47.56C168.424 46.6133 168.224 45.78 167.824 45.06C167.437 44.3267 166.904 43.7667 166.224 43.38C165.544 42.98 164.784 42.78 163.944 42.78C163.064 42.78 162.291 42.9733 161.624 43.36C160.957 43.7333 160.437 44.28 160.064 45C159.691 45.72 159.504 46.5733 159.504 47.56C159.504 48.5467 159.691 49.4 160.064 50.12C160.437 50.84 160.957 51.3933 161.624 51.78C162.304 52.1667 163.077 52.36 163.944 52.36C164.784 52.36 165.544 52.1667 166.224 51.78C166.917 51.38 167.457 50.82 167.844 50.1C168.231 49.3667 168.424 48.52 168.424 47.56Z" fill="black"/>
<path d="M91.725 30L87.875 23.2H86.225V30H82.725V12.55H89.275C90.625 12.55 91.775 12.7917 92.725 13.275C93.675 13.7417 94.3833 14.3833 94.85 15.2C95.3333 16 95.575 16.9 95.575 17.9C95.575 19.05 95.2417 20.0917 94.575 21.025C93.9083 21.9417 92.9167 22.575 91.6 22.925L95.775 30H91.725ZM86.225 20.575H89.15C90.1 20.575 90.8083 20.35 91.275 19.9C91.7417 19.4333 91.975 18.7917 91.975 17.975C91.975 17.175 91.7417 16.5583 91.275 16.125C90.8083 15.675 90.1 15.45 89.15 15.45H86.225V20.575ZM104.891 30.225C103.557 30.225 102.357 29.9333 101.291 29.35C100.224 28.75 99.3823 27.9083 98.7656 26.825C98.1656 25.7417 97.8656 24.4917 97.8656 23.075C97.8656 21.6583 98.174 20.4083 98.7906 19.325C99.424 18.2417 100.282 17.4083 101.366 16.825C102.449 16.225 103.657 15.925 104.991 15.925C106.324 15.925 107.532 16.225 108.616 16.825C109.699 17.4083 110.549 18.2417 111.166 19.325C111.799 20.4083 112.116 21.6583 112.116 23.075C112.116 24.4917 111.791 25.7417 111.141 26.825C110.507 27.9083 109.641 28.75 108.541 29.35C107.457 29.9333 106.241 30.225 104.891 30.225ZM104.891 27.175C105.524 27.175 106.116 27.025 106.666 26.725C107.232 26.4083 107.682 25.9417 108.016 25.325C108.349 24.7083 108.516 23.9583 108.516 23.075C108.516 21.7583 108.166 20.75 107.466 20.05C106.782 19.3333 105.941 18.975 104.941 18.975C103.941 18.975 103.099 19.3333 102.416 20.05C101.749 20.75 101.416 21.7583 101.416 23.075C101.416 24.3917 101.741 25.4083 102.391 26.125C103.057 26.825 103.891 27.175 104.891 27.175ZM118.758 19.025V25.725C118.758 26.1917 118.866 26.5333 119.083 26.75C119.316 26.95 119.7 27.05 120.233 27.05H121.858V30H119.658C116.708 30 115.233 28.5667 115.233 25.7V19.025H113.583V16.15H115.233V12.725H118.758V16.15H121.858V19.025H118.758ZM130.525 30.225C129.192 30.225 127.992 29.9333 126.925 29.35C125.859 28.75 125.017 27.9083 124.4 26.825C123.8 25.7417 123.5 24.4917 123.5 23.075C123.5 21.6583 123.809 20.4083 124.425 19.325C125.059 18.2417 125.917 17.4083 127 16.825C128.084 16.225 129.292 15.925 130.625 15.925C131.959 15.925 133.167 16.225 134.25 16.825C135.334 17.4083 136.184 18.2417 136.8 19.325C137.434 20.4083 137.75 21.6583 137.75 23.075C137.75 24.4917 137.425 25.7417 136.775 26.825C136.142 27.9083 135.275 28.75 134.175 29.35C133.092 29.9333 131.875 30.225 130.525 30.225ZM130.525 27.175C131.159 27.175 131.75 27.025 132.3 26.725C132.867 26.4083 133.317 25.9417 133.65 25.325C133.984 24.7083 134.15 23.9583 134.15 23.075C134.15 21.7583 133.8 20.75 133.1 20.05C132.417 19.3333 131.575 18.975 130.575 18.975C129.575 18.975 128.734 19.3333 128.05 20.05C127.384 20.75 127.05 21.7583 127.05 23.075C127.05 24.3917 127.375 25.4083 128.025 26.125C128.692 26.825 129.525 27.175 130.525 27.175ZM143.818 18.3C144.268 17.5667 144.851 16.9917 145.568 16.575C146.301 16.1583 147.134 15.95 148.068 15.95V19.625H147.143C146.043 19.625 145.209 19.8833 144.643 20.4C144.093 20.9167 143.818 21.8167 143.818 23.1V30H140.318V16.15H143.818V18.3ZM149.525 23.025C149.525 21.625 149.8 20.3833 150.35 19.3C150.917 18.2167 151.675 17.3833 152.625 16.8C153.592 16.2167 154.667 15.925 155.85 15.925C156.884 15.925 157.784 16.1333 158.55 16.55C159.334 16.9667 159.959 17.4917 160.425 18.125V16.15H163.95V30H160.425V27.975C159.975 28.625 159.35 29.1667 158.55 29.6C157.767 30.0167 156.859 30.225 155.825 30.225C154.659 30.225 153.592 29.925 152.625 29.325C151.675 28.725 150.917 27.8833 150.35 26.8C149.8 25.7 149.525 24.4417 149.525 23.025ZM160.425 23.075C160.425 22.225 160.259 21.5 159.925 20.9C159.592 20.2833 159.142 19.8167 158.575 19.5C158.009 19.1667 157.4 19 156.75 19C156.1 19 155.5 19.1583 154.95 19.475C154.4 19.7917 153.95 20.2583 153.6 20.875C153.267 21.475 153.1 22.1917 153.1 23.025C153.1 23.8583 153.267 24.5917 153.6 25.225C153.95 25.8417 154.4 26.3167 154.95 26.65C155.517 26.9833 156.117 27.15 156.75 27.15C157.4 27.15 158.009 26.9917 158.575 26.675C159.142 26.3417 159.592 25.875 159.925 25.275C160.259 24.6583 160.425 23.925 160.425 23.075ZM166.469 23.075C166.469 21.6417 166.76 20.3917 167.344 19.325C167.927 18.2417 168.735 17.4083 169.769 16.825C170.802 16.225 171.985 15.925 173.319 15.925C175.035 15.925 176.452 16.3583 177.569 17.225C178.702 18.075 179.46 19.275 179.844 20.825H176.069C175.869 20.225 175.527 19.7583 175.044 19.425C174.577 19.075 173.994 18.9 173.294 18.9C172.294 18.9 171.502 19.2667 170.919 20C170.335 20.7167 170.044 21.7417 170.044 23.075C170.044 24.3917 170.335 25.4167 170.919 26.15C171.502 26.8667 172.294 27.225 173.294 27.225C174.71 27.225 175.635 26.5917 176.069 25.325H179.844C179.46 26.825 178.702 28.0167 177.569 28.9C176.435 29.7833 175.019 30.225 173.319 30.225C171.985 30.225 170.802 29.9333 169.769 29.35C168.735 28.75 167.927 27.9167 167.344 26.85C166.76 25.7667 166.469 24.5083 166.469 23.075ZM186.483 19.025V25.725C186.483 26.1917 186.591 26.5333 186.808 26.75C187.041 26.95 187.424 27.05 187.958 27.05H189.583V30H187.383C184.433 30 182.958 28.5667 182.958 25.7V19.025H181.308V16.15H182.958V12.725H186.483V16.15H189.583V19.025H186.483Z" fill="#0632AD"/>
</svg>
