<svg width="30" height="30" viewBox="0 0 30 30" fill="none" xmlns="http://www.w3.org/2000/svg">
<path d="M15 2.17163C7.75195 2.17163 1.875 7.93335 1.875 15.0393C1.875 22.1452 7.75195 27.9069 15 27.9069C22.248 27.9069 28.125 22.1452 28.125 15.0393C28.125 7.93335 22.248 2.17163 15 2.17163ZM21.3076 11.8712C21.3164 12.0062 21.3164 12.1469 21.3164 12.2848C21.3164 16.5012 18.041 21.3582 12.0557 21.3582C10.21 21.3582 8.49902 20.8326 7.05762 19.9278C7.32129 19.9566 7.57324 19.968 7.84277 19.968C9.36621 19.968 10.7666 19.4625 11.8828 18.6066C10.4531 18.5779 9.25195 17.6588 8.8418 16.395C9.34277 16.4668 9.79395 16.4668 10.3096 16.3375C9.57342 16.1909 8.91174 15.7989 8.43696 15.2282C7.96218 14.6575 7.70357 13.9432 7.70508 13.2068V13.1666C8.13574 13.405 8.64258 13.5515 9.17285 13.5716C8.72708 13.2803 8.3615 12.8857 8.10853 12.4227C7.85556 11.9598 7.72302 11.4428 7.72266 10.9176C7.72266 10.3231 7.88086 9.7802 8.16504 9.30915C8.98214 10.2953 10.0017 11.1018 11.1576 11.6764C12.3135 12.2509 13.5797 12.5805 14.874 12.6438C14.4141 10.4753 16.0664 8.72034 18.0527 8.72034C18.9902 8.72034 19.834 9.10522 20.4287 9.72563C21.1641 9.59063 21.8672 9.32064 22.4941 8.95874C22.251 9.69691 21.7412 10.3202 21.0645 10.7137C21.7207 10.6447 22.3535 10.4667 22.9395 10.2168C22.4971 10.8544 21.9434 11.4203 21.3076 11.8712Z" fill="#FAFAFA"/>
</svg>
