<svg width="200" height="386" viewBox="0 0 200 386" fill="none" xmlns="http://www.w3.org/2000/svg">
<path fill-rule="evenodd" clip-rule="evenodd" d="M254.153 90.6427C276.843 105.064 309.319 100.646 326.664 121.185C346.236 144.361 355.413 176.194 351.824 206.3C348.059 237.877 332.593 269.133 306.806 287.743C282.093 305.578 249.065 298.78 218.783 302.313C188.013 305.903 156.3 321.912 128.336 308.564C99.8028 294.944 86.7712 262.48 74.3983 233.394C62.2248 204.775 51.8218 174.247 58.2638 143.835C64.7076 113.414 85.3387 88.3037 109.324 68.5133C132.513 49.3802 160.823 30.135 190.557 34.6783C219.169 39.0502 229.723 75.1154 254.153 90.6427Z" fill="url(#paint0_linear)"/>
<defs>
<linearGradient id="paint0_linear" x1="265.837" y1="75.25" x2="126" y2="167" gradientUnits="userSpaceOnUse">
<stop stop-color="#6874D9"/>
<stop offset="1" stop-color="#8E94C7"/>
</linearGradient>
</defs>
</svg>
