<svg width="183" height="312" viewBox="0 0 183 312" fill="none" xmlns="http://www.w3.org/2000/svg">
<path fill-rule="evenodd" clip-rule="evenodd" d="M26.849 8.57795C59.6207 9.43454 98.1091 -8.44081 122.676 13.2656C147.441 35.1464 129.672 77.0046 139.871 108.438C150.062 139.849 190.408 163.627 181.806 195.509C173.275 227.13 128.357 229.158 102.041 248.654C75.3439 268.431 59.6998 305.334 26.849 310.304C-7.09406 315.438 -42.3348 298.179 -66.911 274.21C-89.8728 251.816 -91.5246 217.319 -100.164 186.43C-108.363 157.112 -120.62 128.84 -115.983 98.752C-110.757 64.844 -101.699 26.4745 -72.6886 8.15917C-43.9288 -9.99779 -7.15125 7.68926 26.849 8.57795Z" fill="url(#paint0_linear)"/>
<defs>
<linearGradient id="paint0_linear" x1="-134" y1="92.5" x2="80" y2="172.5" gradientUnits="userSpaceOnUse">
<stop stop-color="#A26BD9"/>
<stop offset="0.997704" stop-color="#B496D2"/>
</linearGradient>
</defs>
</svg>
